# xmcd
#
# Track frame offsets:
# 150
# 9730
# 28860
# 39775
# 49772
# 63610
# 70645
# 86430
# 96217
# 115315
# 126370
# 140115
# 154960
# 167567
#
# Disc length: 2418 seconds
#
# Revision: 1
# Processed by: cddbd v1.5.2PL0 Copyright (c) Steve Scherf et al.
# Submitted via: Easy CD Ripper 2.3.10
#
DISCID=bf09700e
DTITLE=The Back Verandah Boys - The Back Verandah Boys
DYEAR=1987
DGENRE=Country
TTITLE0=Hand Me My Walking Cane
TTITLE1=Back Home Again
TTITLE2=Belfast Mill
TTITLE3=How Great Thou Art
TTITLE4=Take These Chains From My Hart
TTITLE5=Down On The Corner
TTITLE6=Now I'm Easy
TTITLE7=O' Lonesome Me
TTITLE8=Maggie
TTITLE9=Put Another Log On The Fire
TTITLE10=Dirty Old Town
TTITLE11=House Of The Rising Sun
TTITLE12=Bad Moon Rising
TTITLE13=One Day At A Time
EXTD=
EXTT0=
EXTT1=
EXTT2=
EXTT3=
EXTT4=
EXTT5=
EXTT6=
EXTT7=
EXTT8=
EXTT9=
EXTT10=
EXTT11=
EXTT12=
EXTT13=
PLAYORDER=
